<?xml version="1.0" encoding="utf-8"?>
<svg version="1.1" id="svg2" width="453.54266" height="170.07867" viewBox="20.64 22.46 412.155 124.946" xmlns="http://www.w3.org/2000/svg">
  <defs id="defs6">
    <clipPath clipPathUnits="userSpaceOnUse" id="clipPath16">
      <path d="M 0,127.559 H 340.157 V 0 H 0 Z" id="path14"/>
    </clipPath>
    <linearGradient x1="0" y1="0" x2="1" y2="0" gradientUnits="userSpaceOnUse" gradientTransform="matrix(-4.6099977,-34.169998,-34.169998,4.6099977,58.568516,105.27191)" spreadMethod="pad" id="linearGradient44">
      <stop style="stop-opacity:1;stop-color:#0081a6" offset="0" id="stop38"/>
      <stop style="stop-opacity:1;stop-color:#0081a6" offset="0.0154" id="stop40"/>
      <stop style="stop-opacity:1;stop-color:#006f8c" offset="1" id="stop42"/>
    </linearGradient>
    <linearGradient x1="0" y1="0" x2="1" y2="0" gradientUnits="userSpaceOnUse" gradientTransform="matrix(0,28.699997,28.699997,0,56.883247,19.250627)" spreadMethod="pad" id="linearGradient66">
      <stop style="stop-opacity:1;stop-color:#00928b" offset="0" id="stop60"/>
      <stop style="stop-opacity:1;stop-color:#00928b" offset="0.0003" id="stop62"/>
      <stop style="stop-opacity:1;stop-color:#007e77" offset="1" id="stop64"/>
    </linearGradient>
    <linearGradient x1="0" y1="0" x2="1" y2="0" gradientUnits="userSpaceOnUse" gradientTransform="matrix(28.450001,-43.289993,-43.289993,-28.450001,19.39373,100.15557)" spreadMethod="pad" id="linearGradient88">
      <stop style="stop-opacity:1;stop-color:#009ab7" offset="0" id="stop82"/>
      <stop style="stop-opacity:1;stop-color:#00809a" offset="0.9977" id="stop84"/>
      <stop style="stop-opacity:1;stop-color:#00809a" offset="1" id="stop86"/>
    </linearGradient>
    <clipPath clipPathUnits="userSpaceOnUse" id="clipPath98">
      <path d="M 0,127.559 H 340.157 V 0 H 0 Z" id="path96"/>
    </clipPath>
  </defs>
  <g id="g8" transform="matrix(1.3333333,0,0,-1.3333333,0,170.07867)">
    <g id="g10">
      <g id="g12" clip-path="url(#clipPath16)">
        <g id="g18" transform="translate(312.1646,77.2521)">
          <path d="M 0,0 C -3.464,0 -6.426,-1.355 -8.384,-3.765 V 6.928 h -6.074 v -32.13 h 6.074 v 3.163 c 1.958,-2.41 4.92,-3.765 8.384,-3.765 7.129,0 12.25,5.623 12.25,12.902 C 12.25,-5.623 7.129,0 0,0 m -55.517,0 c -3.615,0 -6.225,-1.355 -8.334,-3.866 V 6.928 h -6.074 v -32.13 h 6.074 v 15.814 c 2.009,2.61 4.167,3.866 6.728,3.866 3.062,0 5.02,-1.808 5.02,-4.619 v -15.061 h 6.024 V -9.84 c 0,6.025 -3.464,9.84 -9.438,9.84 m 30.645,-0.603 v -15.863 c -2.008,-2.561 -4.166,-3.816 -6.727,-3.816 -3.062,0 -5.02,1.807 -5.02,4.669 v 15.01 h -6.024 v -15.361 c 0,-5.975 3.464,-9.84 9.438,-9.84 3.614,0 6.175,1.305 8.333,3.865 v -3.263 h 6.075 v 24.599 z m 23.366,-19.729 c -2.761,0 -5.07,1.054 -6.878,3.464 v 7.982 c 1.808,2.359 4.117,3.464 6.878,3.464 4.77,0 7.531,-3.112 7.531,-7.48 0,-4.368 -2.761,-7.43 -7.531,-7.43" style="fill:#00a7ac;fill-opacity:1;fill-rule:nonzero;stroke:none" id="path20"/>
        </g>
        <g id="g22" transform="translate(237.9207,71.2778)">
          <path d="m 0,0 v 5.372 h -8.635 v 7.53 h -6.074 v -7.53 h -4.368 V 0 h 4.368 v -11.747 c 0,-5.522 3.915,-8.083 8.785,-8.083 2.209,0 3.916,0.402 5.622,1.255 v 5.272 c -1.455,-0.704 -2.911,-1.055 -4.467,-1.055 -2.31,0 -3.866,0.904 -3.866,3.264 l 0,11.094 z m -117.611,-9.488 h 19.127 c 1.004,9.589 -4.267,15.462 -12.5,15.462 -8.033,0 -12.953,-5.723 -12.953,-12.801 0,-7.581 5.422,-13.003 14.208,-13.003 4.217,0 7.329,1.255 10.04,3.313 l -2.259,4.569 c -2.259,-1.707 -4.618,-2.611 -7.58,-2.611 -4.267,0 -7.129,1.808 -8.083,5.071 m -0.151,4.618 c 0.653,3.515 3.063,5.724 6.828,5.724 3.564,0 5.974,-1.858 6.526,-5.724 z m 29.29,-14.357 h 5.975 L -71.503,5.07 v 0.302 h -6.426 l -7.581,-17.47 -7.53,17.47 h -6.426 V 5.07 Z m 22.362,9.739 h 19.127 c 1.004,9.589 -4.267,15.462 -12.5,15.462 -8.033,0 -12.952,-5.723 -12.952,-12.801 0,-7.581 5.421,-13.003 14.207,-13.003 4.217,0 7.329,1.255 10.04,3.313 l -2.259,4.569 c -2.259,-1.707 -4.618,-2.611 -7.58,-2.611 -4.268,0 -7.129,1.808 -8.083,5.071 m -0.151,4.618 c 0.653,3.515 3.063,5.724 6.828,5.724 3.564,0 5.974,-1.858 6.526,-5.724 z m 36.569,10.844 c -3.614,0 -6.225,-1.355 -8.333,-3.866 V 5.372 H -44.1 v -24.599 h 6.075 v 15.813 c 2.008,2.611 4.167,3.866 6.727,3.866 3.062,0 5.02,-1.807 5.02,-4.619 v -15.06 h 6.025 v 15.361 c 0,6.025 -3.464,9.84 -9.439,9.84" style="fill:#00374c;fill-opacity:1;fill-rule:nonzero;stroke:none" id="path24"/>
        </g>
      </g>
    </g>
    <g id="g26">
      <g id="g28">
        <g id="g34">
          <g id="g36">
            <path d="m 58.786,107.896 -10.048,-3.949 c -1.577,-0.78 -2.668,-2.408 -2.668,-4.278 v 0 -19.031 c 0,-3.413 0.361,-6.352 4.771,-4.771 v 0 l 11.377,4.081 c 2.952,1.059 4.773,2.411 4.77,5.034 v 0 l -0.016,14.796 c 0,7.492 0.308,10.144 -1.882,10.144 v 0 c -1.199,-10e-4 -3.147,-0.796 -6.304,-2.026" style="fill:url(#linearGradient44);stroke:none" id="path46"/>
          </g>
        </g>
      </g>
    </g>
    <g id="g48">
      <g id="g50">
        <g id="g56">
          <g id="g58">
            <path d="m 46.268,46.367 v -18.67 c 0,-1.836 1.07,-3.433 2.617,-4.199 v 0 l 9.859,-3.873 c 8.754,-3.412 8.031,-3.41 8.031,7.965 v 0 l 0.016,14.516 c 0.003,2.573 -1.784,3.899 -4.681,4.939 v 0 l -11.161,4.003 c -0.828,0.297 -1.51,0.431 -2.073,0.431 v 0 c -2.377,10e-4 -2.608,-2.403 -2.608,-5.112" style="fill:url(#linearGradient66);stroke:none" id="path68"/>
          </g>
        </g>
      </g>
    </g>
    <g id="g70">
      <g id="g72">
        <g id="g78">
          <g id="g80">
            <path d="m 21.335,99.198 c -2.142,0 -2.472,-2.82 -3.49,-9.47 v 0 L 15.756,75.83 c -0.146,-2.285 0.979,-4.574 3.087,-5.792 v 0 L 40.298,57.65 c 3.849,-2.221 7.397,-3.726 8.484,2.274 v 0 l 2.805,15.482 c 0.727,4.018 0.388,6.951 -2.571,8.655 v 0 l -16.691,9.612 c -6.016,3.473 -9.161,5.525 -10.988,5.525 v 0 c -0.001,0 -0.001,0 -0.002,0" style="fill:url(#linearGradient88);stroke:none" id="path90"/>
          </g>
        </g>
      </g>
    </g>
    <g id="g92">
      <g id="g94" clip-path="url(#clipPath98)">
        <g id="g100" transform="translate(68.9249,37.7128)">
          <path d="m 0,0 11.392,-6.594 c 2.019,-1.169 3.871,-0.368 6.001,1.436 l 8.204,6.95 c 3.18,2.694 1.077,4.279 -1.553,5.798 L 9.381,16.055 C 7.94,16.887 6.201,16.771 4.898,15.903 L -2.613,9.918 C -9.263,4.59 -8.932,5.157 0,0" style="fill:#53b586;fill-opacity:1;fill-rule:nonzero;stroke:none" id="path102"/>
        </g>
        <g id="g104" transform="translate(91.5604,64.9427)">
          <path d="m 0,0 8.884,5.116 c 1.575,0.907 1.755,2.468 1.368,4.607 l -1.493,8.24 C 8.18,21.157 6.292,20.356 4.244,19.173 L -7.176,12.58 C -8.298,11.932 -8.897,10.713 -8.819,9.496 L -7.707,2.1 C -6.703,-4.46 -6.957,-4.017 0,0" style="fill:#6bb974;fill-opacity:1;fill-rule:nonzero;stroke:none" id="path106"/>
        </g>
        <g id="g108" transform="translate(27.2803,53.1004)">
          <path d="m 0,0 14.091,8.156 c 2.498,1.446 4.788,0.455 7.422,-1.776 L 31.661,-2.217 C 35.595,-5.549 32.993,-7.51 29.74,-9.388 L 11.604,-19.859 c -1.783,-1.029 -3.934,-0.885 -5.546,0.188 l -9.29,7.404 C -11.457,-5.677 -11.049,-6.379 0,0" style="fill:#00a7ac;fill-opacity:1;fill-rule:nonzero;stroke:none" id="path110"/>
        </g>
      </g>
    </g>
  </g>
</svg>