<svg version="1.1" id="Layer_1" xmlns="http://www.w3.org/2000/svg" xmlns:xlink="http://www.w3.org/1999/xlink" x="0px" y="0px"
	 width="100%" viewBox="0 0 645 767" enable-background="new 0 0 645 767" xml:space="preserve">
<path fill="#FFFFFF" opacity="1.000000" stroke="none" 
	d="
M646.000000,202.000000 
	C646.000000,391.000000 646.000000,579.500000 646.000000,768.000000 
	C431.000000,768.000000 216.000000,768.000000 1.000000,768.000000 
	C1.000000,512.333313 1.000000,256.666656 1.000000,1.000000 
	C216.000000,1.000000 431.000000,1.000000 646.000000,1.000000 
	C646.000000,67.833336 646.000000,134.666672 646.000000,202.000000 
M622.001709,355.500000 
	C622.001709,313.339111 622.028625,271.178192 621.993408,229.017349 
	C621.963867,193.690308 622.812866,158.328568 621.523865,123.046097 
	C620.236511,87.809906 602.348877,61.235680 573.264404,41.223633 
	C567.856812,49.517849 562.639771,57.519756 557.260986,65.769753 
	C558.073730,66.350304 558.480286,66.639694 558.885803,66.930511 
	C582.906982,84.156624 593.173279,107.948181 593.054749,137.067505 
	C592.850708,187.225662 592.998291,237.385239 592.998291,287.544220 
	C592.998291,405.859436 592.989136,524.174683 593.009705,642.489868 
	C593.012268,657.425537 590.302368,671.725159 582.409180,684.563660 
	C566.232849,710.874817 542.383545,723.792664 511.626251,723.808228 
	C392.311218,723.868591 272.996124,723.841431 153.681091,723.804565 
	C148.358597,723.802917 143.019669,723.581970 137.716461,723.132263 
	C99.787430,719.916138 68.834244,687.605347 67.821838,649.488525 
	C67.207047,626.341370 67.605675,603.167236 67.550056,580.005249 
	C67.545753,578.211365 67.549492,576.417480 67.549492,574.477051 
	C57.514351,574.477051 47.968918,574.477051 38.588589,574.477051 
	C38.588589,600.600220 38.415943,626.404602 38.663097,652.204956 
	C38.782555,664.675049 41.876312,676.775574 47.202705,687.922058 
	C67.252937,729.880981 100.818336,752.432434 147.321732,752.650024 
	C269.133759,753.220032 390.950195,752.858459 512.764893,752.826172 
	C532.987732,752.820801 552.190552,748.436707 569.398682,737.552307 
	C604.228577,715.521790 621.935913,683.741516 621.973816,642.456177 
	C622.061462,547.137512 622.001709,451.818726 622.001709,355.500000 
M223.430344,168.041336 
	C234.227921,184.993530 249.759323,195.409195 268.828979,200.962265 
	C285.716370,205.879883 302.942902,206.818756 320.296295,204.803406 
	C354.434082,200.838791 380.161926,184.889328 392.114807,151.421310 
	C402.314087,122.863403 402.030823,93.802528 391.753235,65.307030 
	C382.262573,38.993359 363.360779,22.421572 336.101837,15.707361 
	C314.001434,10.263761 291.862457,10.549838 269.870514,16.228518 
	C246.225555,22.334017 228.995956,36.532669 218.469345,58.576492 
	C211.237427,73.720917 208.685318,89.913307 208.550156,106.585564 
	C208.375946,128.071106 211.733337,148.688354 223.430344,168.041336 
M188.800232,78.471397 
	C188.289413,73.002975 188.092178,67.483582 187.213165,62.075001 
	C183.533676,39.435497 170.627716,24.679916 148.468643,18.709082 
	C140.817688,16.647511 132.756332,15.279575 124.854042,15.133692 
	C99.865471,14.672376 74.863304,14.884435 49.866730,14.955530 
	C41.784225,14.978519 38.806843,18.035337 38.369373,26.113577 
	C38.297352,27.443493 38.314621,28.779015 38.314556,30.111944 
	C38.311821,86.272057 38.311817,142.432175 38.311462,198.592285 
	C38.311455,200.213821 38.311459,201.835358 38.311459,202.185684 
	C53.377785,209.076767 67.502518,215.537170 82.411835,222.356445 
	C82.411835,220.161453 82.411850,218.565781 82.411835,216.970108 
	C82.411606,193.306198 82.505768,169.641571 82.322998,145.979080 
	C82.290573,141.781769 83.601929,140.731384 87.703110,140.658386 
	C105.166512,140.347626 122.775742,140.881271 140.041428,138.752319 
	C159.665817,136.332535 176.063644,126.876144 183.317520,107.164078 
	C186.532837,98.426559 187.051422,88.696671 188.800232,78.471397 
M64.732407,375.990814 
	C49.874626,379.613678 38.720440,387.485901 35.712494,403.343109 
	C32.404797,420.780579 35.517845,436.791351 48.401039,449.990204 
	C49.265209,450.875519 49.979214,451.907379 50.957542,453.110168 
	C38.255203,460.964203 33.989326,472.370850 34.626686,486.467773 
	C35.253208,500.324982 40.839603,511.600250 52.084991,521.461792 
	C48.385990,521.784485 46.121719,521.992859 43.855484,522.177124 
	C40.605701,522.441467 38.397762,523.959473 38.351231,527.407349 
	C38.250092,534.901550 38.115856,542.406921 38.425014,549.889954 
	C38.571842,553.443848 40.303478,556.139404 44.680897,556.129028 
	C79.662674,556.045837 114.644783,556.087524 149.626450,555.980103 
	C155.582870,555.961792 158.655243,553.173767 159.183273,547.292908 
	C159.643646,542.165710 159.560303,536.982544 159.573395,531.823730 
	C159.605560,519.149597 157.324280,516.861023 144.816666,516.855286 
	C124.993347,516.846252 105.170006,516.837830 85.346710,516.860962 
	C78.529411,516.868896 72.473648,515.039001 68.004967,509.600555 
	C63.248100,503.811401 62.323792,496.980225 64.975487,490.331390 
	C67.448280,484.131165 73.537666,483.049530 79.641106,482.993958 
	C80.973656,482.981812 82.306389,482.989166 83.639038,482.989136 
	C103.628944,482.988831 123.618858,483.000946 143.608719,482.971069 
	C145.765335,482.967865 147.942184,482.864716 150.073868,482.558777 
	C154.981720,481.854401 157.979019,479.078949 158.223984,474.001648 
	C158.488525,468.518616 158.650406,463.018921 158.545837,457.532410 
	C158.377930,448.722809 155.199036,445.541687 146.378891,445.234863 
	C141.387360,445.061218 136.385040,445.201050 131.387589,445.193878 
	C114.396538,445.169464 97.403206,445.302063 80.415253,445.059357 
	C69.385910,444.901825 61.833824,436.747437 61.926823,425.765137 
	C62.009888,415.956757 66.926704,411.764557 79.391945,411.608093 
	C95.547882,411.405273 111.708176,411.566406 127.866486,411.527191 
	C134.526154,411.511047 141.197891,411.605011 147.841522,411.238708 
	C154.188278,410.888794 156.845993,408.270813 157.357758,401.919891 
	C157.771362,396.787048 157.670792,391.604736 157.635574,386.445465 
	C157.568375,376.598755 155.791382,374.807190 145.968384,374.786804 
	C124.812492,374.742889 103.656006,374.698059 82.500755,374.822479 
	C76.855896,374.855682 71.214630,375.499481 64.732407,375.990814 
M556.952637,135.676941 
	C553.856384,125.776810 547.161011,118.212479 538.672424,113.326439 
	C526.048035,106.059883 512.504944,100.382736 499.317780,94.102760 
	C490.628815,89.964928 481.575714,86.487122 473.242645,81.736725 
	C465.332581,77.227417 462.837860,69.570900 464.669678,60.627274 
	C466.358032,52.384235 471.466187,47.478943 479.586456,45.777603 
	C483.312073,44.997017 487.118774,44.376621 490.913422,44.191669 
	C506.469238,43.433475 521.032043,46.741665 534.079590,55.543762 
	C537.253296,57.684776 539.402405,57.357693 541.418640,53.977119 
	C544.740662,48.407253 548.379578,43.027485 551.807312,37.519291 
	C554.182129,33.703030 553.872498,30.202850 549.981201,27.562691 
	C546.964111,25.515686 543.975647,23.271477 540.660706,21.842983 
	C514.169373,10.427041 486.765900,8.965610 459.036987,15.878025 
	C431.262146,22.801889 416.369720,44.361786 419.249847,72.723763 
	C420.830719,88.291397 429.412933,100.063606 442.713043,107.326180 
	C455.799591,114.472130 469.984711,119.580376 483.518311,125.943108 
	C491.740723,129.808807 500.284760,133.481171 507.539032,138.801865 
	C518.807861,147.067001 515.322144,166.348251 502.111267,170.803467 
	C496.993073,172.529510 491.413940,173.318726 485.992126,173.636780 
	C466.968414,174.752655 449.543854,168.997971 432.968445,160.259079 
	C429.549866,158.456741 427.158356,158.509979 425.050507,162.049805 
	C421.816193,167.481415 418.321136,172.757065 415.022705,178.151459 
	C412.103180,182.926132 412.704163,186.310150 417.583862,188.977798 
	C422.962372,191.918152 428.482544,194.831192 434.275635,196.741196 
	C458.785339,204.822083 483.916107,207.780792 509.593384,204.267822 
	C521.606628,202.624237 532.936523,198.863998 542.584229,191.165024 
	C558.558472,178.417480 563.701050,158.991913 556.952637,135.676941 
M55.928066,356.388000 
	C86.591606,341.909485 117.252869,327.426117 147.925613,312.967133 
	C149.405746,312.269409 151.006760,311.241455 152.517990,311.295929 
	C159.835892,311.559784 167.318863,319.752319 168.051376,327.149048 
	C168.708038,333.779877 165.876648,339.167480 162.890549,344.510345 
	C160.817719,348.219147 161.809982,350.319122 165.280380,352.089539 
	C168.833679,353.902222 172.272385,355.938660 175.772827,357.855988 
	C183.946121,362.332886 185.151657,362.028748 190.062210,354.153442 
	C191.116562,352.462524 192.153000,350.741638 192.994217,348.939545 
	C200.755905,332.312042 202.157211,305.394714 181.467911,290.129272 
	C174.150497,284.730194 166.174316,279.999451 157.970856,276.064362 
	C121.105011,258.380280 84.053574,241.082901 47.057350,223.670990 
	C41.443298,221.028793 38.270309,222.898956 38.204052,228.974106 
	C38.102356,238.299393 38.243591,247.627243 38.150669,256.952728 
	C38.108360,261.198639 39.999310,263.536377 43.971725,265.103546 
	C64.684174,273.274963 85.310783,281.664032 105.961441,289.991821 
	C107.528717,290.623871 109.050560,291.368591 111.251358,292.356079 
	C103.588295,295.455200 96.815636,298.202484 90.036682,300.934113 
	C75.087303,306.957977 60.115856,312.927704 45.198208,319.029022 
	C41.897278,320.379120 38.123207,321.434662 38.164288,326.281189 
	C38.248978,336.272919 38.064892,346.268219 38.250343,356.257263 
	C38.336197,360.881561 41.432308,362.789276 45.757088,361.112366 
	C49.004688,359.853088 52.111214,358.229980 55.928066,356.388000 
z"/>
<path fill="#525252" opacity="1.000000" stroke="none" 
	d="
M622.001709,356.000000 
	C622.001709,451.818726 622.061462,547.137512 621.973816,642.456177 
	C621.935913,683.741516 604.228577,715.521790 569.398682,737.552307 
	C552.190552,748.436707 532.987732,752.820801 512.764893,752.826172 
	C390.950195,752.858459 269.133759,753.220032 147.321732,752.650024 
	C100.818336,752.432434 67.252937,729.880981 47.202705,687.922058 
	C41.876312,676.775574 38.782555,664.675049 38.663097,652.204956 
	C38.415943,626.404602 38.588589,600.600220 38.588589,574.477051 
	C47.968918,574.477051 57.514351,574.477051 67.549492,574.477051 
	C67.549492,576.417480 67.545753,578.211365 67.550056,580.005249 
	C67.605675,603.167236 67.207047,626.341370 67.821838,649.488525 
	C68.834244,687.605347 99.787430,719.916138 137.716461,723.132263 
	C143.019669,723.581970 148.358597,723.802917 153.681091,723.804565 
	C272.996124,723.841431 392.311218,723.868591 511.626251,723.808228 
	C542.383545,723.792664 566.232849,710.874817 582.409180,684.563660 
	C590.302368,671.725159 593.012268,657.425537 593.009705,642.489868 
	C592.989136,524.174683 592.998291,405.859436 592.998291,287.544220 
	C592.998291,237.385239 592.850708,187.225662 593.054749,137.067505 
	C593.173279,107.948181 582.906982,84.156624 558.885803,66.930511 
	C558.480286,66.639694 558.073730,66.350304 557.260986,65.769753 
	C562.639771,57.519756 567.856812,49.517849 573.264404,41.223633 
	C602.348877,61.235680 620.236511,87.809906 621.523865,123.046097 
	C622.812866,158.328568 621.963867,193.690308 621.993408,229.017349 
	C622.028625,271.178192 622.001709,313.339111 622.001709,356.000000 
z"/>
<path fill="#525252" opacity="1.000000" stroke="none" 
	d="
M223.238663,167.732513 
	C211.733337,148.688354 208.375946,128.071106 208.550156,106.585564 
	C208.685318,89.913307 211.237427,73.720917 218.469345,58.576492 
	C228.995956,36.532669 246.225555,22.334017 269.870514,16.228518 
	C291.862457,10.549838 314.001434,10.263761 336.101837,15.707361 
	C363.360779,22.421572 382.262573,38.993359 391.753235,65.307030 
	C402.030823,93.802528 402.314087,122.863403 392.114807,151.421310 
	C380.161926,184.889328 354.434082,200.838791 320.296295,204.803406 
	C302.942902,206.818756 285.716370,205.879883 268.828979,200.962265 
	C249.759323,195.409195 234.227921,184.993530 223.238663,167.732513 
M351.192841,135.557861 
	C355.115662,118.394524 355.198334,101.085106 351.647491,83.968094 
	C346.590424,59.590534 333.745697,47.901016 310.480652,45.146648 
	C282.493713,41.833252 262.268677,56.605209 256.820129,84.044281 
	C253.527588,100.625626 253.720474,117.119194 256.847534,133.670990 
	C263.233246,167.470795 297.815918,183.878387 328.471161,167.735825 
	C341.289948,160.985672 347.651184,149.794479 351.192841,135.557861 
z"/>
<path fill="#535353" opacity="1.000000" stroke="none" 
	d="
M188.797180,78.944328 
	C187.051422,88.696671 186.532837,98.426559 183.317520,107.164078 
	C176.063644,126.876144 159.665817,136.332535 140.041428,138.752319 
	C122.775742,140.881271 105.166512,140.347626 87.703110,140.658386 
	C83.601929,140.731384 82.290573,141.781769 82.322998,145.979080 
	C82.505768,169.641571 82.411606,193.306198 82.411835,216.970108 
	C82.411850,218.565781 82.411835,220.161453 82.411835,222.356445 
	C67.502518,215.537170 53.377785,209.076767 38.311459,202.185684 
	C38.311459,201.835358 38.311455,200.213821 38.311462,198.592285 
	C38.311817,142.432175 38.311821,86.272057 38.314556,30.111944 
	C38.314621,28.779015 38.297352,27.443493 38.369373,26.113577 
	C38.806843,18.035337 41.784225,14.978519 49.866730,14.955530 
	C74.863304,14.884435 99.865471,14.672376 124.854042,15.133692 
	C132.756332,15.279575 140.817688,16.647511 148.468643,18.709082 
	C170.627716,24.679916 183.533676,39.435497 187.213165,62.075001 
	C188.092178,67.483582 188.289413,73.002975 188.797180,78.944328 
M83.420921,96.465912 
	C83.420921,99.906181 83.420921,103.346443 83.420921,106.973770 
	C96.104324,106.973770 108.251373,107.372620 120.359756,106.859299 
	C131.992905,106.366135 140.511246,99.252319 142.234039,87.943558 
	C143.308167,80.892776 142.871109,73.382568 141.760818,66.290108 
	C140.553787,58.579624 135.420776,53.231541 127.732048,50.938366 
	C124.743904,50.047142 121.609894,49.203514 118.527687,49.147778 
	C106.968712,48.938744 95.403702,49.064064 83.421196,49.064064 
	C83.421196,64.931366 83.421196,80.202873 83.420921,96.465912 
z"/>
<path fill="#068FF8" opacity="1.000000" stroke="none" 
	d="
M65.152054,375.926880 
	C71.214630,375.499481 76.855896,374.855682 82.500755,374.822479 
	C103.656006,374.698059 124.812492,374.742889 145.968384,374.786804 
	C155.791382,374.807190 157.568375,376.598755 157.635574,386.445465 
	C157.670792,391.604736 157.771362,396.787048 157.357758,401.919891 
	C156.845993,408.270813 154.188278,410.888794 147.841522,411.238708 
	C141.197891,411.605011 134.526154,411.511047 127.866486,411.527191 
	C111.708176,411.566406 95.547882,411.405273 79.391945,411.608093 
	C66.926704,411.764557 62.009888,415.956757 61.926823,425.765137 
	C61.833824,436.747437 69.385910,444.901825 80.415253,445.059357 
	C97.403206,445.302063 114.396538,445.169464 131.387589,445.193878 
	C136.385040,445.201050 141.387360,445.061218 146.378891,445.234863 
	C155.199036,445.541687 158.377930,448.722809 158.545837,457.532410 
	C158.650406,463.018921 158.488525,468.518616 158.223984,474.001648 
	C157.979019,479.078949 154.981720,481.854401 150.073868,482.558777 
	C147.942184,482.864716 145.765335,482.967865 143.608719,482.971069 
	C123.618858,483.000946 103.628944,482.988831 83.639038,482.989136 
	C82.306389,482.989166 80.973656,482.981812 79.641106,482.993958 
	C73.537666,483.049530 67.448280,484.131165 64.975487,490.331390 
	C62.323792,496.980225 63.248100,503.811401 68.004967,509.600555 
	C72.473648,515.039001 78.529411,516.868896 85.346710,516.860962 
	C105.170006,516.837830 124.993347,516.846252 144.816666,516.855286 
	C157.324280,516.861023 159.605560,519.149597 159.573395,531.823730 
	C159.560303,536.982544 159.643646,542.165710 159.183273,547.292908 
	C158.655243,553.173767 155.582870,555.961792 149.626450,555.980103 
	C114.644783,556.087524 79.662674,556.045837 44.680897,556.129028 
	C40.303478,556.139404 38.571842,553.443848 38.425014,549.889954 
	C38.115856,542.406921 38.250092,534.901550 38.351231,527.407349 
	C38.397762,523.959473 40.605701,522.441467 43.855484,522.177124 
	C46.121719,521.992859 48.385990,521.784485 52.084991,521.461792 
	C40.839603,511.600250 35.253208,500.324982 34.626686,486.467773 
	C33.989326,472.370850 38.255203,460.964203 50.957542,453.110168 
	C49.979214,451.907379 49.265209,450.875519 48.401039,449.990204 
	C35.517845,436.791351 32.404797,420.780579 35.712494,403.343109 
	C38.720440,387.485901 49.874626,379.613678 65.152054,375.926880 
z"/>
<path fill="#525252" opacity="1.000000" stroke="none" 
	d="
M557.072815,136.056335 
	C563.701050,158.991913 558.558472,178.417480 542.584229,191.165024 
	C532.936523,198.863998 521.606628,202.624237 509.593384,204.267822 
	C483.916107,207.780792 458.785339,204.822083 434.275635,196.741196 
	C428.482544,194.831192 422.962372,191.918152 417.583862,188.977798 
	C412.704163,186.310150 412.103180,182.926132 415.022705,178.151459 
	C418.321136,172.757065 421.816193,167.481415 425.050507,162.049805 
	C427.158356,158.509979 429.549866,158.456741 432.968445,160.259079 
	C449.543854,168.997971 466.968414,174.752655 485.992126,173.636780 
	C491.413940,173.318726 496.993073,172.529510 502.111267,170.803467 
	C515.322144,166.348251 518.807861,147.067001 507.539032,138.801865 
	C500.284760,133.481171 491.740723,129.808807 483.518311,125.943108 
	C469.984711,119.580376 455.799591,114.472130 442.713043,107.326180 
	C429.412933,100.063606 420.830719,88.291397 419.249847,72.723763 
	C416.369720,44.361786 431.262146,22.801889 459.036987,15.878025 
	C486.765900,8.965610 514.169373,10.427041 540.660706,21.842983 
	C543.975647,23.271477 546.964111,25.515686 549.981201,27.562691 
	C553.872498,30.202850 554.182129,33.703030 551.807312,37.519291 
	C548.379578,43.027485 544.740662,48.407253 541.418640,53.977119 
	C539.402405,57.357693 537.253296,57.684776 534.079590,55.543762 
	C521.032043,46.741665 506.469238,43.433475 490.913422,44.191669 
	C487.118774,44.376621 483.312073,44.997017 479.586456,45.777603 
	C471.466187,47.478943 466.358032,52.384235 464.669678,60.627274 
	C462.837860,69.570900 465.332581,77.227417 473.242645,81.736725 
	C481.575714,86.487122 490.628815,89.964928 499.317780,94.102760 
	C512.504944,100.382736 526.048035,106.059883 538.672424,113.326439 
	C547.161011,118.212479 553.856384,125.776810 557.072815,136.056335 
z"/>
<path fill="#068FF8" opacity="1.000000" stroke="none" 
	d="
M55.604309,356.578430 
	C52.111214,358.229980 49.004688,359.853088 45.757088,361.112366 
	C41.432308,362.789276 38.336197,360.881561 38.250343,356.257263 
	C38.064892,346.268219 38.248978,336.272919 38.164288,326.281189 
	C38.123207,321.434662 41.897278,320.379120 45.198208,319.029022 
	C60.115856,312.927704 75.087303,306.957977 90.036682,300.934113 
	C96.815636,298.202484 103.588295,295.455200 111.251358,292.356079 
	C109.050560,291.368591 107.528717,290.623871 105.961441,289.991821 
	C85.310783,281.664032 64.684174,273.274963 43.971725,265.103546 
	C39.999310,263.536377 38.108360,261.198639 38.150669,256.952728 
	C38.243591,247.627243 38.102356,238.299393 38.204052,228.974106 
	C38.270309,222.898956 41.443298,221.028793 47.057350,223.670990 
	C84.053574,241.082901 121.105011,258.380280 157.970856,276.064362 
	C166.174316,279.999451 174.150497,284.730194 181.467911,290.129272 
	C202.157211,305.394714 200.755905,332.312042 192.994217,348.939545 
	C192.153000,350.741638 191.116562,352.462524 190.062210,354.153442 
	C185.151657,362.028748 183.946121,362.332886 175.772827,357.855988 
	C172.272385,355.938660 168.833679,353.902222 165.280380,352.089539 
	C161.809982,350.319122 160.817719,348.219147 162.890549,344.510345 
	C165.876648,339.167480 168.708038,333.779877 168.051376,327.149048 
	C167.318863,319.752319 159.835892,311.559784 152.517990,311.295929 
	C151.006760,311.241455 149.405746,312.269409 147.925613,312.967133 
	C117.252869,327.426117 86.591606,341.909485 55.604309,356.578430 
z"/>
<path fill="#FEFEFE" opacity="1.000000" stroke="none" 
	d="
M351.130676,135.967773 
	C347.651184,149.794479 341.289948,160.985672 328.471161,167.735825 
	C297.815918,183.878387 263.233246,167.470795 256.847534,133.670990 
	C253.720474,117.119194 253.527588,100.625626 256.820129,84.044281 
	C262.268677,56.605209 282.493713,41.833252 310.480652,45.146648 
	C333.745697,47.901016 346.590424,59.590534 351.647491,83.968094 
	C355.198334,101.085106 355.115662,118.394524 351.130676,135.967773 
z"/>
<path fill="#FDFDFD" opacity="1.000000" stroke="none" 
	d="
M83.421059,95.970146 
	C83.421196,80.202873 83.421196,64.931366 83.421196,49.064064 
	C95.403702,49.064064 106.968712,48.938744 118.527687,49.147778 
	C121.609894,49.203514 124.743904,50.047142 127.732048,50.938366 
	C135.420776,53.231541 140.553787,58.579624 141.760818,66.290108 
	C142.871109,73.382568 143.308167,80.892776 142.234039,87.943558 
	C140.511246,99.252319 131.992905,106.366135 120.359756,106.859299 
	C108.251373,107.372620 96.104324,106.973770 83.420921,106.973770 
	C83.420921,103.346443 83.420921,99.906181 83.421059,95.970146 
z"/>
</svg>